<?xml version="1.0" encoding="UTF-8"?>
<svg xmlns="http://www.w3.org/2000/svg" viewBox="0 0 1080 883.1">
  <defs>
    <style>
      .cls-1, .cls-2 {
        fill: #ffffff;
        stroke: #ffffff;
        stroke-linecap: round;
        stroke-linejoin: round;
      }

      .cls-2 {
        stroke-width: 3px;
      }
    </style>
  </defs>
  <g id="Layer_2" data-name="Layer 2">
    <path class="cls-2" d="m520.19,156.89c-.81-1.27-1.69-2.69-2.45-4.77-.37-1.02-1.23-3.64-1.29-7.35-.02-1.07.02-2.93,2.45-11.86,2.33-8.59,2.61-8.03,2.97-10.83.14-1.11.3-2.8,1.16-4.9,1.07-2.61,2.55-4.21,2.97-4.64,1.07-1.12,2.58-2.69,4.77-3.22,3.76-.92,7.2,1.77,7.74,2.19,3.08,2.4,4.11,6.36,6.06,14.18,1.38,5.56,1.03,6,2.32,9.93,1.4,4.26,2.99,7.35,4.13,9.54,1.12,2.15,3.2,6.09,6.7,10.57.64.82,2.92,3.34,7.48,8.38,3.54,3.92,4.99,5.47,6.06,8.29.66,1.75.84,3.23,1.2,6.19.15,1.21.4,3.62.34,11-.04,5.62-.19,5.12-.09,7.22.13,2.62.32,5.91,1.55,9.88.36,1.17,1.3,3.22,3.18,7.31,1.8,3.91,2.61,5.38,4.13,6.88,1.22,1.21,2.4,2.38,4.21,2.49,2.24.14,4.39-1.4,5.33-3.27.65-1.29.71-2.68.34-4.64-.85-4.55-3.09-7.26-4.56-9.71-2.48-4.13-2.97-7.85-3.7-13.41-.66-4.99.14-5.35-.17-17.19-.17-6.24-.42-7.39-.86-8.6-1.42-3.9-3.27-4.26-8.25-10.31-3.81-4.63-6.26-8.69-7.74-11.17-1.41-2.37-3-5.04-4.3-8.08-2.67-6.27-2.96-11.48-3.44-21.49-.56-11.74.62-12.35-.86-17.92-.14-.51-1.24-4.64-2.58-10.19-1.23-5.1-1.62-7.11-.77-9.41,1.1-2.98,3.05-3.09,3.61-5.42.84-3.44-2.69-6.29-5.29-9.93-4.63-6.49-4.89-13.51-5.29-23.98-.36-9.6,1.38-16.49,1.89-18.39.91-3.39,2.71-8.87,7.05-14.1,1.9-2.29,4.2-5,6.7-4.64,2.28.32,3.75,3.04,5.16,6.53,3.95,9.78,3.02,14.7,5.67,26.82,1.35,6.19,1.92,6.39,3.78,14.96,1.2,5.52,1.27,6.82,2.41,9.63,2.09,5.17,3.68,5.25,7.05,11.52,1.79,3.33,3.79,7.14,4.47,12.03.71,5.1-.35,9.06-.86,11.17-4.5,18.66-1.45,38.65-1.29,39.62.92,5.73,1.95,12.14,5.67,19.6,2.63,5.26,5.36,8.56,8.25,16.5,2.23,6.12,2.51,9.38,2.58,10.31.41,5.69-1.05,9.18-2.32,14.18-1.44,5.66-1.76,11.17-2.41,22.18-.7,12.06-1.05,18.09-.17,22.69.86,4.49,1.96,7.13.52,10.14-1.56,3.25-4.81,4.29-12.12,6.88-7.08,2.5-14.07,5.24-21.14,7.74-12.53,4.42-12.28,4.69-17.02,5.93-10.03,2.63-15.73,3.61-15.73,3.61-5.03.87-5.95.75-7.99,1.81-2.75,1.42-3.8,3.04-9.8,8.51-3.91,3.57-4.42,3.75-4.9,3.61-1.98-.56-1.49-5.75-1.81-20.63-.23-10.59-.57-12.42.52-16.5.68-2.54,1.18-3.24,4.9-11.6,3.11-7.01,4.67-10.51,5.67-13.15,2.61-6.85,3.46-11.97,5.16-22.18,1.25-7.5,2.1-12.78,2.06-20.11-.04-8.02-.06-12.03-2.32-15.99-.78-1.36-1.59-2.38-6.7-10.44Z"/>
    <path class="cls-2" d="m442.7,109.45c-.91,2.05.8,4.87,2.06,6.96.84,1.39,2.04,3.38,4.25,4.77,2.34,1.47,4.95,1.75,9.8,1.29,7.21-.68,12.67-2.36,14.18-2.84,7.42-2.34,15.43-4.86,21.27-9.28.77-.58,1.97-1.55,3.87-2.06,2.05-.55,3.53-.19,9.15.77,3.32.57,4.99.85,5.42.77,2.94-.55,3.57-2.77,7.99-6.96,3.43-3.26,5.15-4.89,7.74-5.54,4.32-1.1,8.8.75,9.8,1.16,3.59,1.48,5.07,3.44,6.7,2.71,1.3-.58,1.64-2.4,1.93-4,.15-.83,1.1-6.4-1.81-8.9-2.05-1.76-4.89-1.02-8.25-.64-2.53.28-8.05-.5-19.08-2.06-15.26-2.16-15.04-3.76-19.73-2.84-3.02.6-3.12,1.26-14.83,7.86-7.19,4.06-11.21,6.32-16.89,9.03-8.85,4.21-13.27,6.31-15.86,6.83-3.59.72-6.8.84-7.74,2.97Z"/>
    <path class="cls-2" d="m486.92,152.64c4.31-4.8,5.97-7.39,9.93-9.54,2.11-1.15,3.57-1.46,4.9-1.03,1.71.56,2.58,2.16,3.22,3.35,1.49,2.76.8,4.02,2.06,8.64.4,1.44.83,3,1.81,4.9,1.26,2.46,2.78,4.26,3.22,4.77,2.34,2.71,3.51,2.84,3.87,4.51.41,1.95-.77,3.65-1.03,4-1.65,2.24-4.51,2.41-5.16,2.45-2.17.13-2.66-.76-6.45-1.29-1.11-.15-2.3-.32-3.35-.26-.99.06-4.27.47-11.09,9.28-2.9,3.75-4.35,5.62-5.03,7.48-1.38,3.8-.25,4.94-.77,13.41-.45,7.35-1.5,9.71-2.06,10.83-.61,1.2-1.96,3.81-4.9,5.93-.54.39-4.07,2.87-9.03,2.84-2.02-.01-3.71-.02-4.64-1.16-1.25-1.51-.2-3.86.9-7.86.08-.28,1.8-6.66,2.19-12.76.13-2.08.41-6.47-.64-11.6-.3-1.44-.82-3.52-1.29-6.83-.39-2.74-.58-4.12-.52-4.9.25-2.88,2.11-4.47,9.28-10.96,5.97-5.4,7.23-6.6,8.51-7.86,1.45-1.44,3.51-3.47,6.06-6.32Z"/>
    <polygon class="cls-2" points="442.06 742.1 671.03 742.1 642.15 653.4 483.57 653.4 442.06 742.1"/>
    <path class="cls-2" d="m596.32,470.55c-3.53-11.07-2.1-15.74.13-17.89,1.08-1.05,1.72-.88,5.51-2.61,1.51-.69,7.21-3.33,11.81-7.05,2.49-2.01,4.68-4.78,9.05-10.32,3.54-4.47,4.67-6.42,7.87-8.62,3.46-2.38,6.32-2.99,7.09-3.13,2.39-.46,5.45-1.28,7.74.26,1.9,1.27,2.43,3.53,2.62,4.31,1.08,4.27,4.54,12.13,12.2,26.12l196.84,429.99h-125.63l-135.25-411.05Z"/>
    <path class="cls-1" d="m492.47,198.79c.2-5.81.29-6.16.56-6.7.93-1.87,1.91-1.72,6.1-5.24,3.58-3.01,3.4-3.58,4.99-4.13,2.43-.84,3.19.38,7.82.34,4.21-.03,5.14-1.05,6.27-.17,2.12,1.64,1.2,7.03-.73,10.62-2.19,4.05-5.88,6.16-7.74,7.22-4.25,2.42-5.39,1.43-7.35,3.48-1.82,1.91-1.07,3.01-3.48,9.67-1.8,4.96-2.97,6.44-4.25,7.48-.68.55-3.16,2.55-5.29,1.68-1.4-.58-1.95-2.12-2.06-2.45-.58-1.63-.14-3.19,1.03-6.06,1.83-4.48,2.59-5.19,3.35-7.35.55-1.55.56-2.3.77-8.38Z"/>
    <path class="cls-1" d="m561.17,313.81c-2.91,2.31-5.07,5.16-10.94,13.65-.75,1.09-1.8,2.65-1.25,3.78.42.86,1.61,1.12,1.98,1.2,1.88.41,3.56-.49,3.98-.71,4.63-2.46,25.54-12.12,35.77-15.39,0,0,6.97-3.11,12.64-3.7.18-.02,1.35-.14,3.09-.32,1.78-.19,3.24-.35,4.19-.45.39.03,1.69.11,2.19-.64.35-.52.16-1.21.06-1.55-.98-3.37-3.03-6.9-4.25-9.93-.93-2.29-.97-3.29-2.06-3.87-1.46-.78-3.29-.01-4.06.32-7.37,3.21-13.72,6.78-18.37,8.64-5.36,2.14-12.5,3.63-16.76,5.35-1.98.8-3.44,1.69-4.13,2.13-.13.08-1.06.68-2.08,1.49Z"/>
  </g>
  <g id="Layer_4" data-name="Layer 4">
    <path class="cls-1" d="m662.06,391.86c-.74-1.69-3.59-2.85-5.69-3.1-1.75-.21-2.59.25-4.42.59-1.44.27-2.45.27-11.86-1.09-5.48-.79-6.26-.95-7.87-.72-3.46.49-5.86,2.08-6.83,2.71-8.84,5.72-22.76,12.07-33.91,17.15-11.68,5.32-18.49,6.93-21.28,4.38-1.5-1.37-1.8-3.22-1.8-3.22-.41-2.49,1.17-4.96,2.97-6.19,1.17-.8,2.32-.99,2.58-1.03,5.5-.96,20.12-9.85,42.93-20.63,6.02-2.84,8.32-3.8,11.73-4,4.93-.29,7.16,1.28,15.6,1.81,5.11.32,7.7.45,9.54-.9,4.36-3.19,4.96-11.79,1.55-14.96-.95-.88-1.36-.56-4.37-1.61-4.1-1.44-4.68-2.51-11.52-6.03-3.55-1.82-5.35-2.74-6.69-2.92-3.28-.45-4.93.71-9.4,1.52-4.45.81-7.18.46-9.28.53-8.03.26-14.48,6.85-21.22,12-19.97,15.25-40.09,15.93-44.27,13.27-.56-.36-2.16-1.37-2.38-3.01-.26-1.99,1.67-3.67,1.95-3.91,2.25-1.91,5.25-1.69,6.86-1.68,1.8.01,5.98-1.55,14.33-4.68,9.81-3.67,14.71-5.51,17.15-7.43,5.24-4.14,5.35-7.05,11.34-10.49,3.85-2.21,7.27-2.99,9.08-3.39,10.78-2.38,15.22,1.94,21.77-1.69,1.05-.58,4.51-2.57,5.85-6.56,1.33-3.97.26-8.97-2.78-11.43-2.2-1.79-4.08-1.14-10.57-1.68-8.6-.71-9.29-2.18-14.57-2.29-4.52-.1-7.87.89-15.72,3.84-26.9,10.07-34.55,13.67-34.55,13.67-5.82,2.62-13.82,6.34-17.55,3.33-.24-.19-1.14-.92-1.53-2.17-.86-2.74,2.13-4.37,4.77-9.67,1.46-2.93,1.86-5.05,4-10.31.23-.57.82-1.99,1.93-3.61,0,0,.5-.72,1.07-1.41,5.53-6.59,14.01-10.58,14.01-10.58,7.7-4.19,9.36-3.58,20.4-8.13,3.98-1.64,10.55-5.3,23.7-12.63,5.14-2.86,9.02-5.1,10.31-9.41,1.35-4.54-.11-8.82-.29-9.27-.54-1.38-1.53-3.88-4.09-5.33-2.37-1.34-4.77-1.06-6.17-.89-.18.02-9.66,4.1-9.44,4.02-7.31,5.84-20.17,14.17-37.55,16.15-3.85.44-7.47.51-10.8.36-6.54,1.11-11.3,2.25-12.42,2.85-.32.17-.63.36-.63.36-.97.61-1.67,1.33-6.68,4.79-4.09,2.81-6.12,4.24-7.22,4.77-2.82,1.34-4.82,1.68-7.48,3.86-.77.63-1.23,1.12-1.37,1.27-2,2.15-2.74,4.49-3.13,5.83-1.55,5.27-1.37,7.35-2.71,12.54-.61,2.34-1.19,4.01-1.93,6.16-.81,2.34-2.16,5.97-4.25,10.44-3.03,6.49-4.55,9.73-7.08,12.36-.58.6-1.97,1.99-3.97,4.19-2.89,3.17-4.1,5.03-5.33,7.56-2.71,5.57-1.79,9.27-2.75,19.51-.18,1.93-.14.98-1.72,12.03-4.29,30.01-6.44,45.01-6.53,45.73-2.02,15.85-2.54,22.89-7.39,27.33-1,.92-4,3.39-6.02,7.74-.39.84-1.89,4.21-2.06,8.94-.15,4.07.82,5.53,1.1,8.7.27,3.08-.13,7.59-3.42,13.39-8.66,15.28-161.63,273.53-209.77,362.52-4.62,8.55-8.29,15.56-10.53,19.88,43.38-.09,86.75-.17,130.13-.26l12.98-28.3c88.47-186.98,120.96-259.77,126.11-276.19.7-2.22,3.68-12.28,10.98-23.77,4.37-6.89,10.45-16.45,21.66-24.07,8.54-5.8,12.59-5.4,25.53-14.35,5.34-3.7,8.07-5.61,11.04-9.03,8.24-9.46,10.08-20.34,10.57-23.47,1.01-6.44.75-13.43.56-18.74-.22-6.04-.75-9.64,1.2-14.27,1.53-3.62,3.8-6.03,5.93-8.25,3.77-3.93,5.7-4.45,11-8.38,8.4-6.24,8.04-8.27,16.12-13.8,2.53-1.73,5.37-3.67,9.54-5.54,9.7-4.35,12.6-2.2,19.7-5.71,8.24-4.07,14.83-12.23,13.22-15.89Zm-151.16-27.95c-1.23,1.25-1.97,1.21-3.61,2.41-.44.32-1.85,1.37-2.92,2.92-1.84,2.66-1.89,5.63-1.81,6.96.19,3.07,1.59,5.42,2.06,6.19.85,1.39,1.7,2.22,2.66,4.38.66,1.49.78,2.26.77,2.92,0,.6-.02,2.22-1.29,3.44-.17.16-1.5,1.39-3.35,1.12-.19-.03-1.54-.25-2.41-1.38-.52-.68-.65-1.39-.69-1.63-.26-1.47-1.52-5.88-4.04-14.7-.76-2.67-1.18-3.71-1.12-5.59.09-2.71,1.1-4.65,1.38-5.16.16-.29.95-1.7,2.49-3.09,1.38-1.24,1.49-.78,4.13-2.66,1.08-.77,1.9-1.44,3.35-2.06.87-.37,1.39-.47,1.81-.52.67-.07,1.86-.19,2.92.6.07.05,1.32,1.01,1.38,2.58.05,1.46-.96,2.5-1.72,3.27Zm26.11,60.45c-.13.1-1.05.83-2.26.77-1.34-.06-2.18-1.04-4.32-3.55-3.81-4.45-3.61-4.17-4.13-4.83-1.51-1.93-2.53-3.25-3.67-5.22-1.63-2.8-1.91-4.17-2-4.64-.13-.72-.39-2.23.06-4.06.44-1.79,1.33-2.95,2.19-4.06.95-1.21,1.92-2.01,3.87-3.61,0,0,1.58-1.29,4.38-3.03.83-.51,1.61-.97,2.71-1.03.49-.03,1.5-.09,2.32.58,1.09.88,1.04,2.37,1.03,2.58-.09,1.82-1.69,3.04-2.45,3.61-1.28.97-1.69.67-3.16,1.74-.5.37-1.56,1.15-2.45,2.51-.37.57-1.43,2.25-1.42,4.58,0,2.06.85,3.53,1.42,4.51,1.04,1.77,2.28,2.83,4.13,4.38,1.6,1.35,2.94,2.22,4.25,4.13.38.55.79,1.24.77,2.13-.02,1.47-1.16,2.41-1.29,2.51Zm35.97,27.85c-.76.7-1.73.71-2.26.71-.49,0-1.7-.08-4.19-1.87-.94-.68-2.34-1.7-3.8-3.48-1.68-2.04-2.97-4.25-2.97-4.25-.38-.65-.82-1.46-1.74-2.26-.86-.74-1.68-1.06-1.93-1.16-1.04-.39-1.91-.39-2.51-.39-1.01,0-1.81.2-2.32.32-.87.21-1.06.37-2.06.58-.74.15-1.12.23-1.61.19-.35-.03-1.13-.1-1.87-.64-.14-.11-1.27-.98-1.29-2.39-.01-.94.47-1.62.71-1.93.75-1.01,1.59-1.18,3.67-2.13,1.04-.47,2.21-1.01,3.48-1.81.95-.6,2.11-1.34,3.29-2.64,1.25-1.38,2.11-2.95,2.26-3.22.3-.55.58-1.14,1.16-2,.6-.88.91-1.32,1.48-1.68.25-.15,1.17-.69,2.32-.45,1.04.22,1.63.93,1.87,1.22.12.15,1.16,1.45.84,2.97-.12.55-.35.83-.97,1.68-.84,1.15-1.72,2.41-2.13,3.03-.92,1.41-1.65,2.53-1.81,4.13-.15,1.52.3,2.72.52,3.29.64,1.66,1.65,2.63,2.84,3.74,1.83,1.71,3.5,3.28,6.06,4.19.82.29,2.09.64,3.03,1.81.6.74.74,1.41.77,1.61.02.13.29,1.8-.84,2.84Z"/>
  </g>
</svg>